<svg viewBox="0 0 512 512" xmlns="http://www.w3.org/2000/svg"><path d="M468.88 439.24v-258.7c0-4.466-3.618-8.084-8.084-8.084s-8.084 3.619-8.084 8.084v258.7a8.083 8.083 0 0 0 8.084 8.084 8.082 8.082 0 0 0 8.084-8.084zM185.94 388.04h-75.453c-16.345 0-29.642 13.298-29.642 29.642v64.674c0 4.848 1.171 9.429 3.242 13.474H45.814a8.084 8.084 0 0 0-8.084 8.084 8.084 8.084 0 0 0 8.084 8.084h140.13c16.345 0 29.642-13.298 29.642-29.642v-64.674c0-16.344-13.297-29.642-29.642-29.642zm13.474 94.316c0 7.43-6.044 13.474-13.474 13.474h-75.453c-7.43 0-13.474-6.044-13.474-13.474v-35.032h83.537c4.465 0 8.084-3.618 8.084-8.084s-3.62-8.084-8.084-8.084H97.014v-13.474c0-7.43 6.044-13.474 13.474-13.474h75.453c7.43 0 13.474 6.044 13.474 13.474v64.674zM18.863 495.83H8.084C3.62 495.83 0 499.448 0 503.914s3.62 8.084 8.084 8.084h10.779c4.465 0 8.084-3.618 8.084-8.084s-3.619-8.084-8.084-8.084z"/><path d="M439.24 97.011h-10.779V29.642C428.461 13.298 415.163 0 398.819 0h-37.726c-16.344 0-29.642 13.298-29.642 29.642V97.01h-10.779c-35.683 0-65.858 25.504-71.752 60.642a8.085 8.085 0 0 0 15.947 2.675c4.582-27.32 28.052-47.149 55.806-47.149h118.57c31.203 0 56.589 25.387 56.589 56.589v312.59c0 7.43-6.044 13.474-13.474 13.474h-129.35a8.083 8.083 0 0 0-8.084 8.084 8.082 8.082 0 0 0 8.084 8.084h129.35c16.345.002 29.643-13.296 29.643-29.64v-312.59c0-40.119-32.639-72.757-72.758-72.757zm-26.947 0h-64.674V29.642c0-7.43 6.044-13.474 13.474-13.474h37.726c7.43 0 13.474 6.044 13.474 13.474v67.369z"/><path d="M285.64 312.59h-2.695v-99.705c0-16.344-13.298-29.642-29.642-29.642h-21.558c-16.345 0-29.642 13.298-29.642 29.642v99.705h-2.695c-28.231 0-51.2 22.969-51.2 51.2 0 4.466 3.62 8.084 8.084 8.084s8.084-3.618 8.084-8.084c0-19.317 15.716-35.032 35.032-35.032h86.232c19.317 0 35.032 15.715 35.032 35.032v118.57c0 7.43-6.044 13.474-13.474 13.474H234.44a8.084 8.084 0 0 0-8.084 8.084 8.084 8.084 0 0 0 8.084 8.084h72.758c16.344 0 29.642-13.298 29.642-29.642V363.79c0-28.231-22.969-51.2-51.2-51.2zm-18.863 0h-48.505v-99.705c0-7.43 6.044-13.474 13.474-13.474h21.558c7.43 0 13.474 6.044 13.474 13.474v99.705z"/><path d="M296.42 460.8v-97.01a8.083 8.083 0 0 0-8.084-8.084 8.082 8.082 0 0 0-8.084 8.084v97.01c0 4.466 3.618 8.084 8.084 8.084s8.084-3.618 8.084-8.084z"/></svg>