<svg viewBox="0 0 511.846 511.846" xmlns="http://www.w3.org/2000/svg"><path d="M468.88 0H332.35c-26.402 0-46.071 8.405-65.766 28.1a8.525 8.525 0 0 0 0 12.066 8.523 8.523 0 0 0 12.066 0c16.623-16.623 31.684-23.1 53.7-23.1h136.53c14.114 0 25.6 11.486 25.6 25.6v136.53c0 22.025-6.477 37.077-23.108 53.7l-253.42 253.78c-9.677 9.668-26.547 9.66-36.198 0l-156.89-156.89c-4.838-4.838-7.501-11.264-7.501-18.108 0-6.835 2.662-13.261 7.501-18.091l229.05-228.73c3.516.896 7.049 1.792 10.701 2.773 34.722 9.301 62.114 18.91 82.534 27.494-4.019 7.432-6.272 15.77-6.272 24.329 0 28.237 22.963 51.2 51.2 51.2s51.2-22.963 51.2-51.2-22.963-51.2-51.2-51.2c-4.719 0-8.533 3.823-8.533 8.533s3.814 8.533 8.533 8.533c18.825 0 34.133 15.309 34.133 34.133 0 18.825-15.309 34.133-34.133 34.133s-34.133-15.309-34.133-34.133a34.065 34.065 0 0 1 4.779-17.365c14.78 7.074 24.021 13.039 27.674 16.845-1.562.444-3.977.939-7.62 1.254-4.693.418-8.166 4.557-7.748 9.25.393 4.437 4.113 7.791 8.491 7.791.247 0 .503-.017.759-.034 5.248-.469 21.214-1.877 24.286-13.321 8.405-31.394-114.76-66.091-139.53-72.73-37.897-10.155-74.3-17.101-102.49-19.558-34.671-3.038-51.541.913-54.707 12.774-1.527 5.692-5.572 20.804 63.607 48.085 4.403 1.724 9.344-.418 11.076-4.813 1.724-4.378-.427-9.336-4.804-11.059-33.425-13.184-47.275-22.844-51.729-27.392 10.539-3.089 46.524-2.193 104.46 10.982l-221.65 221.35C4.734 289.575.297 300.284.297 311.676c0 11.401 4.437 22.118 12.501 30.174l156.88 156.88c8.055 8.055 18.765 12.493 30.165 12.493 11.392 0 22.101-4.437 30.174-12.501l253.42-253.77c19.703-19.695 28.1-39.364 28.1-65.766V42.656c.001-23.527-19.14-42.667-42.666-42.667zM443.07 312.11a8.519 8.519 0 0 0-11.682 3.046l-97.809 166.84c-7.066 12.228-22.741 16.444-34.594 9.6l-19.063-12.348c-3.951-2.569-9.242-1.434-11.793 2.517-2.569 3.951-1.434 9.242 2.517 11.802l19.43 12.578a42.333 42.333 0 0 0 21.265 5.709c14.754 0 29.107-7.637 36.983-21.274l97.783-166.79c2.381-4.061 1.025-9.291-3.037-11.672z"/><path d="M204.35 247.47v119.47c0 4.71 3.814 8.533 8.533 8.533s8.533-3.823 8.533-8.533V247.47c0-4.71-3.814-8.533-8.533-8.533s-8.533 3.822-8.533 8.533zM255.55 273.07c0 9.412 7.654 17.067 17.067 17.067s17.067-7.654 17.067-17.067c0-9.412-7.654-17.067-17.067-17.067s-17.067 7.654-17.067 17.067zM136.08 324.27c0 9.412 7.654 17.067 17.067 17.067 9.412 0 17.067-7.654 17.067-17.067s-7.655-17.067-17.067-17.067c-9.413 0-17.067 7.654-17.067 17.067z"/></svg>